<svg width="120" height="109" viewBox="0 0 120 109" fill="none" xmlns="http://www.w3.org/2000/svg">
<path d="M0 13.9875C0 8.46463 4.47715 4.01042 10 4.01042H73.3333C74.2885 3.96162 74.4127 5.32534 73.4651 5.4547C39.727 10.0602 0 20.1168 0 41.9414C0 71.0241 0 33.2115 0 13.9875Z" fill="#F1B53E"/>
<path opacity="0.6" d="M0 14.4984C0 8.97551 4.47715 4.55 10 4.55H73.2119C73.2927 4.55 73.3735 4.54391 73.4534 4.53178C75.4669 4.22642 75.4441 3.75185 73.4528 4.17826C42.934 10.7133 0 27.2098 0 68.3061C0 120.94 0 43.2166 0 14.4984Z" fill="#F1B53E"/>
<path opacity="0.2" d="M0 13.5965C0 8.07368 4.47715 3.63287 10 3.63287H76.3889C77.8392 3.44814 77.8896 3.59703 76.4616 3.91047C46.8992 10.3993 0 29.5771 0 85.9508C0 155.758 0 47.972 0 13.5965Z" fill="#F1B53E"/>
</svg>
