<svg width="120" height="110" viewBox="0 0 120 110" fill="none" xmlns="http://www.w3.org/2000/svg">
<path d="M120 96.0128C120 101.536 115.523 105.99 110 105.99H46.6667C45.7115 106.039 45.5873 104.675 46.5349 104.546C80.273 99.9401 120 89.8834 120 68.0588C120 38.9762 120 76.7887 120 96.0128Z" fill="#F1B53E"/>
<path opacity="0.6" d="M120 95.5016C120 101.024 115.523 105.45 110 105.45H46.7881C46.7073 105.45 46.6265 105.456 46.5466 105.468C44.5331 105.774 44.5559 106.248 46.5472 105.822C77.066 99.2867 120 82.7902 120 41.6939C120 -10.9404 120 66.7834 120 95.5016Z" fill="#F1B53E"/>
<path opacity="0.2" d="M120 95.4032C120 100.926 115.523 105.367 110 105.367H43.6111C42.1608 105.552 42.1104 105.403 43.5384 105.089C73.1008 98.6005 120 79.4227 120 23.0489C120 -46.7582 120 61.0277 120 95.4032Z" fill="#F1B53E"/>
</svg>
