<svg width="124" height="43" viewBox="0 0 124 43" fill="none" xmlns="http://www.w3.org/2000/svg">
<path d="M38.792 23.345C38.792 22.001 39.056 20.809 39.584 19.769C40.128 18.729 40.864 17.929 41.792 17.369C42.72 16.809 43.752 16.529 44.888 16.529C45.752 16.529 46.576 16.721 47.36 17.105C48.144 17.473 48.768 17.969 49.232 18.593V12.281H52.64V30.041H49.232V28.073C48.816 28.729 48.232 29.257 47.48 29.657C46.728 30.057 45.856 30.257 44.864 30.257C43.744 30.257 42.72 29.969 41.792 29.393C40.864 28.817 40.128 28.009 39.584 26.969C39.056 25.913 38.792 24.705 38.792 23.345ZM49.256 23.393C49.256 22.577 49.096 21.881 48.776 21.305C48.456 20.713 48.024 20.265 47.48 19.961C46.936 19.641 46.352 19.481 45.728 19.481C45.104 19.481 44.528 19.633 44 19.937C43.472 20.241 43.04 20.689 42.704 21.281C42.384 21.857 42.224 22.545 42.224 23.345C42.224 24.145 42.384 24.849 42.704 25.457C43.04 26.049 43.472 26.505 44 26.825C44.544 27.145 45.12 27.305 45.728 27.305C46.352 27.305 46.936 27.153 47.48 26.849C48.024 26.529 48.456 26.081 48.776 25.505C49.096 24.913 49.256 24.209 49.256 23.393ZM68.4736 16.745V30.041H65.0896V28.361C64.6576 28.937 64.0896 29.393 63.3856 29.729C62.6976 30.049 61.9456 30.209 61.1296 30.209C60.0896 30.209 59.1696 29.993 58.3696 29.561C57.5696 29.113 56.9376 28.465 56.4736 27.617C56.0256 26.753 55.8016 25.729 55.8016 24.545V16.745H59.1616V24.065C59.1616 25.121 59.4256 25.937 59.9536 26.513C60.4816 27.073 61.2016 27.353 62.1136 27.353C63.0416 27.353 63.7696 27.073 64.2976 26.513C64.8256 25.937 65.0896 25.121 65.0896 24.065V16.745H68.4736ZM85.6848 13.289V30.041H82.3248V22.913H75.1488V30.041H71.7888V13.289H75.1488V20.177H82.3248V13.289H85.6848ZM90.6959 15.161C90.1039 15.161 89.6079 14.977 89.2079 14.609C88.8239 14.225 88.6319 13.753 88.6319 13.193C88.6319 12.633 88.8239 12.169 89.2079 11.801C89.6079 11.417 90.1039 11.225 90.6959 11.225C91.2879 11.225 91.7759 11.417 92.1599 11.801C92.5599 12.169 92.7599 12.633 92.7599 13.193C92.7599 13.753 92.5599 14.225 92.1599 14.609C91.7759 14.977 91.2879 15.161 90.6959 15.161ZM92.3519 16.745V30.041H88.9919V16.745H92.3519ZM101.216 26.945L104.576 16.745H108.152L103.232 30.041H99.1516L94.2556 16.745H97.8556L101.216 26.945ZM122.399 23.105C122.399 23.585 122.367 24.017 122.303 24.401H112.583C112.663 25.361 112.999 26.113 113.591 26.657C114.183 27.201 114.911 27.473 115.775 27.473C117.023 27.473 117.911 26.937 118.439 25.865H122.063C121.679 27.145 120.943 28.201 119.855 29.033C118.767 29.849 117.431 30.257 115.847 30.257C114.567 30.257 113.415 29.977 112.391 29.417C111.383 28.841 110.591 28.033 110.015 26.993C109.455 25.953 109.175 24.753 109.175 23.393C109.175 22.017 109.455 20.809 110.015 19.769C110.575 18.729 111.359 17.929 112.367 17.369C113.375 16.809 114.535 16.529 115.847 16.529C117.111 16.529 118.239 16.801 119.231 17.345C120.239 17.889 121.015 18.665 121.559 19.673C122.119 20.665 122.399 21.809 122.399 23.105ZM118.919 22.145C118.903 21.281 118.591 20.593 117.983 20.081C117.375 19.553 116.631 19.289 115.751 19.289C114.919 19.289 114.215 19.545 113.639 20.057C113.079 20.553 112.735 21.249 112.607 22.145H118.919Z" fill="white"/>
<rect y="4" width="35" height="35" rx="7.14286" fill="white"/>
<path d="M16.852 14.661V19.561H23.432V22.669H16.852V27.849H24.272V31.041H12.932V11.469H24.272V14.661H16.852Z" fill="#0F52BA"/>
</svg>
